<svg [attr.width]="width" [attr.height]="height" version="1.1" viewBox="0 0 75.41 11.94" xmlns="http://www.w3.org/2000/svg"><g transform="translate(-76.032 -55.881)" stroke-linecap="round" stroke-linejoin="round"><path d="m78.496 56.435a0.77557 0.77557 0 0 0-0.76562 0.64258l-1.2871 7.4141a0.77557 0.77557 0 0 0 0.76367 0.9082h9.6367l0.71289 1.5664a0.77557 0.77557 0 0 0 1.4707-0.18946l0.35352-2.0195 1.2891-7.4141a0.77557 0.77557 0 0 0-0.76562-0.9082zm0.65234 1.5508h9.834l-1.0625 6.1211a0.77557 0.77557 0 0 0-0.57813-0.25781h-9.2129z" color="#000000" color-rendering="auto" dominant-baseline="auto" fill="none" image-rendering="auto" shape-rendering="auto" solid-color="#000000" stroke="#fffffe" stroke-width=".8" style="font-feature-settings:normal;font-variant-alternates:normal;font-variant-caps:normal;font-variant-ligatures:normal;font-variant-numeric:normal;font-variant-position:normal;isolation:auto;mix-blend-mode:normal;paint-order:normal;shape-padding:0;text-decoration-color:#000000;text-decoration-line:none;text-decoration-style:solid;text-indent:0;text-orientation:mixed;text-transform:none;white-space:normal"/><path d="m89.905 57.21h-11.41l-1.2887 7.414h10.135l0.92074 2.02 0.35392-2.02z" fill="#474747" stroke="#474747" stroke-width="1.551" style="paint-order:normal"/><path d="m87.438 59.207h-7.0575l-0.60621 3.3883h7.0575z" fill="#fff" stroke="#fff" stroke-width="2.5" style="paint-order:normal"/></g><g transform="translate(-74.445 -55.881)" fill="#474747" stroke="#fff" stroke-linejoin="round" stroke-width=".8" style="paint-order:stroke markers fill" aria-label="arsnova"><path d="m96.269 65.41q-0.10749-0.339-0.09095-0.81028-1.0087 1.0087-2.282 0.97565-1.1741-0.01654-1.9513-0.76068-0.76894-0.75241-0.71934-1.8521 0.05788-1.4635 1.2237-2.2407 1.1741-0.78548 3.1419-0.78548l1.0914 0.01654 0.11576-0.53743q0.04961-0.27285 0.0248-0.5209-0.04134-0.38861-0.29766-0.60358-0.24805-0.22324-0.66146-0.23151-0.5457-0.01654-0.92604 0.27285-0.38034 0.28112-0.48782 0.81855l-2.3399 0.0083q0.05788-1.2816 1.1741-2.0753 1.1245-0.80202 2.7699-0.78548 1.5214 0.03307 2.3812 0.9095 0.85989 0.86816 0.71933 2.2407l-0.68626 4.2829-0.04134 0.52916q-0.01654 0.58704 0.14056 0.99219l-0.0083 0.1571zm-1.7942-1.6454q1.0087 0.03307 1.7611-0.87643l0.28939-1.5462-0.81028-0.0083q-1.2898 0.03307-1.8603 0.78548-0.2067 0.27285-0.25632 0.66972-0.06615 0.44648 0.1819 0.71107 0.25632 0.25631 0.69453 0.26458z"/><path d="m106.11 58.704q-0.47955-0.08268-0.78548-0.08268-1.2485-0.03307-1.9761 0.93431l-1.0335 5.8539h-2.3316l1.5544-8.9462 2.1911-0.0083-0.21497 1.0914q0.84335-1.265 2.0836-1.265 0.34727 0 0.81029 0.11576z"/><path d="m111.24 62.888q0.1323-0.66146-0.91777-0.95911l-0.7524-0.19017q-2.6706-0.73587-2.5962-2.5962 0.0413-1.265 1.1162-2.0588 1.0831-0.80202 2.6045-0.78548 1.5131 0.01654 2.4474 0.80202 0.93431 0.78548 0.95085 2.0919l-2.3151-0.0083q0.0165-1.1493-1.141-1.1658-0.54571 0-0.95085 0.27285-0.39687 0.27285-0.48782 0.73587-0.12403 0.66146 1.0004 0.93431l0.33073 0.07441q1.141 0.27285 1.7446 0.62838 0.60358 0.34726 0.92604 0.86816 0.33073 0.5209 0.30593 1.2485-0.0248 0.85163-0.55398 1.4883-0.52089 0.63665-1.4387 0.98392-0.90951 0.34726-1.9182 0.32246-1.4883-0.01654-2.4805-0.85163-0.99219-0.84336-1.0087-2.1745l2.1994 0.01654q0.0331 1.2816 1.3725 1.2981 0.64492 0 1.0583-0.26458 0.42168-0.26458 0.50436-0.71107z"/><path d="m118.27 56.455-0.19843 1.0583q1.0749-1.2485 2.6045-1.2154 1.265 0.02481 1.8686 0.92604 0.60358 0.90124 0.43822 2.497l-0.94258 5.6885h-2.3316l0.95912-5.7133q0.0413-0.32246 0.0165-0.58704-0.10748-0.84336-1.0583-0.86816-0.91777-0.03307-1.6454 0.85163l-1.1162 6.3169h-2.3316l1.5544-8.9462z"/><path d="m128.99 56.298q1.1824 0.01654 2.034 0.61185 0.85989 0.58704 1.2568 1.6288 0.40514 1.0335 0.28939 2.2986-0.19017 2.1332-1.4883 3.4561-1.2898 1.3146-3.1915 1.2816-1.1658-0.01654-2.0174-0.59531-0.85162-0.58704-1.2568-1.6206-0.40515-1.0335-0.28939-2.282 0.21497-2.2159 1.5048-3.5223 1.2898-1.3064 3.1585-1.2568zm-2.3564 5.6307q0.0165 0.79375 0.37207 1.2568 0.35553 0.45475 1.0004 0.47129 1.0749 0.03307 1.6867-0.98392 0.61185-1.0253 0.5705-2.6872-0.0331-0.79375-0.3886-1.265-0.34727-0.47956-1.0005-0.49609-1.0418-0.03307-1.6702 0.98392-0.62012 1.0087-0.57051 2.7202z"/><path d="m136.87 62.458 2.5466-5.9945h2.5135l-4.3243 8.9462h-2.2324l-1.5296-8.9462h2.3647z"/><path d="m146.55 65.41q-0.10748-0.339-0.091-0.81028-1.0087 1.0087-2.282 0.97565-1.1741-0.01654-1.9513-0.76068-0.76894-0.75241-0.71934-1.8521 0.0579-1.4635 1.2237-2.2407 1.1741-0.78548 3.1419-0.78548l1.0914 0.01654 0.11576-0.53743q0.0496-0.27285 0.0248-0.5209-0.0413-0.38861-0.29765-0.60358-0.24805-0.22324-0.66146-0.23151-0.5457-0.01654-0.92604 0.27285-0.38034 0.28112-0.48782 0.81855l-2.3399 0.0083q0.0579-1.2816 1.1741-2.0753 1.1245-0.80202 2.7698-0.78548 1.5214 0.03307 2.3812 0.9095 0.85989 0.86816 0.71933 2.2407l-0.68626 4.2829-0.0413 0.52916q-0.0165 0.58704 0.14056 0.99219l-8e-3 0.1571zm-1.7942-1.6454q1.0087 0.03307 1.7611-0.87643l0.28939-1.5462-0.81029-0.0083q-1.2898 0.03307-1.8603 0.78548-0.20671 0.27285-0.25632 0.66972-0.0661 0.44648 0.1819 0.71107 0.25632 0.25631 0.69453 0.26458z"/></g></svg>
