
<svg
   xmlns="http://www.w3.org/2000/svg"
   width="576"
   height="576"
   viewBox="0 0 152.4 152.4"
   version="1.0">
  <defs
     id="defs943" />
  <g
     transform="translate(0,76.200001)"
     id="layer4" />
  <g
     transform="translate(0,76.200001)"
     id="layer2" />
  <g
     transform="translate(0,76.200001)"
     id="layer5" />
  <g
     transform="translate(0,76.200001)"
     id="layer12" />
  <g
     transform="translate(0,76.200001)"
     id="layer6" />
  <g
     id="layer1"
     transform="matrix(2.0000001,0,0,0.99999948,2.0710661e-7,-144.59983)">
    <rect
       style="opacity:1;fill:#e0e0e0;fill-opacity:1;stroke:#424242;stroke-width:0;stroke-miterlimit:76.59999847;stroke-dasharray:none;stroke-dashoffset:0;stroke-opacity:1"
       id="rect941"
       width="76.199997"
       height="0.79374999"
       x="-76.199997"
       y="296.20624"
       transform="scale(-1,1)" />
  </g>
  <g
     transform="translate(0,76.200001)"
     id="layer3" />
  <g
     transform="translate(0,76.200001)"
     id="layer7" />
  <g
     transform="translate(0,76.200001)"
     id="layer8" />
  <g
     transform="translate(0,76.200001)"
     id="layer10" />
  <g
     transform="translate(0,76.200001)"
     id="layer11" />
  <g
     transform="matrix(2.0000033,0,0,2.0000033,-7.104846e-5,0.79350057)"
     id="layer9">
    <g
       id="g2730"
       transform="matrix(1.1127489,0,0,1.1127489,-6.2685461,-8.5019725)">
      <g
         id="g2765"
         transform="translate(3.0732506)">
        <g
           id="g2799"
           transform="translate(-1.1154696)">
          <g
             id="g2874"
             transform="translate(3.6183822)">
            <g
               id="g3040"
               transform="translate(-2.0210836)">
              <rect
                 ry="0"
                 rx="0"
                 y="67.550888"
                 x="-31.08754"
                 height="5.2481499"
                 width="1.6652845"
                 id="rect1566"
                 style="opacity:1;fill:#fcb6a7;fill-opacity:1;stroke:#424242;stroke-width:0;stroke-miterlimit:76.59999847;stroke-dasharray:none;stroke-dashoffset:0;stroke-opacity:1"
                 transform="matrix(-0.99658194,-0.08261032,0.17060831,0.98533892,0,0)" />
              <rect
                 ry="0"
                 rx="0"
                 y="49.206577"
                 x="-43.171635"
                 height="5.2481499"
                 width="1.6652845"
                 id="rect1566-1"
                 style="opacity:1;fill:#fcb6a7;fill-opacity:1;stroke:#424242;stroke-width:0;stroke-miterlimit:76.59999847;stroke-dasharray:none;stroke-dashoffset:0;stroke-opacity:1"
                 transform="matrix(-0.89802874,-0.43993677,-0.20001839,0.97979214,0,0)" />
              <path
                 style="fill:#fcb6a7;fill-opacity:1;stroke-width:0.13316341"
                 id="path4-6-0"
                 d="m 22.213631,37.661669 1.739774,-3.262139 1.474569,1.294362 -2.076623,2.89192 z" />
              <path
                 style="fill:#f8b2a3;fill-opacity:1;stroke-width:0.16944049"
                 id="path4-6-0-8"
                 d="m 21.104809,38.014249 c 0.06218,-0.550643 0.756287,-1.061414 1.309202,-1.024533 0.559945,0.03735 1.226087,0.64548 1.1763,1.204456 -0.05381,0.604226 -0.880485,1.138197 -1.481611,1.056744 -0.526139,-0.0713 -1.063471,-0.709074 -1.003891,-1.236667 z" />
              <path
                 style="fill:#fcb6a7;fill-opacity:1;stroke-width:0.13316341"
                 id="path4-6-0-2"
                 d="m 54.203063,40.001367 -0.753302,-3.44851 -1.922619,0.593153 1.262778,3.265051 z" />
              <path
                 style="fill:#f8b2a3;fill-opacity:1;stroke-width:0.16944049"
                 id="path4-6-0-8-1"
                 d="m 54.203063,40.001367 c -0.192639,-0.519581 -0.989122,-0.84865 -1.516986,-0.680023 -0.534575,0.170771 -1.03512,0.921119 -0.852508,1.451766 0.197387,0.573605 1.128129,0.893349 1.692084,0.669873 0.493603,-0.195606 0.861989,-0.943786 0.67741,-1.441616 z" />
              <g
                 id="g2566"
                 transform="matrix(1.0000002,0,0,0.41842674,-5.2073199e-6,10.144694)">
                <rect
                   transform="matrix(-0.98897781,-0.14806371,-0.01795028,0.99983888,0,0)"
                   style="opacity:1;fill:#fcb6a7;fill-opacity:1;stroke:#424242;stroke-width:0;stroke-miterlimit:76.59999847;stroke-dasharray:none;stroke-dashoffset:0;stroke-opacity:1"
                   id="rect1566-4"
                   width="2.935849"
                   height="5.2487359"
                   x="-41.73724"
                   y="8.728879"
                   rx="0"
                   ry="0" />
              </g>
              <path
                 style="fill:#3e2723;fill-opacity:1;stroke-width:0.20738083"
                 id="path50-4-1"
                 d="m 37.80178,8.7547608 c -2.449821,0.099992 -3.212124,4.5703272 -3.172894,6.5405342 0.02227,1.118301 0.890707,1.936453 1.928995,2.718276 -1.578533,-4.446549 1.986285,-6.639826 2.563235,-8.1179426 z" />
              <path
                 style="fill:#5e35b1;stroke-width:0.14021461"
                 id="path6-3-3"
                 d="m 34.16611,22.268906 c 0,0 0.272609,-3.073773 -2.796201,-1.37593 -1.693209,0.936781 -9.10331,14.915116 -9.10331,14.915116 l 2.663639,1.685333 7.175486,-11.825262 z" />
              <path
                 style="fill:#5e35b1;stroke-width:0.14021461"
                 id="path6-3-3-0"
                 d="m 44.581648,23.309066 c 0,0 -0.448982,-3.251511 2.559874,-1.701345 0.8601,0.443124 5.426064,9.346219 5.426064,9.346219 l 1.735416,7.753663 -2.770716,0.429369 -2.281175,-7.163291 -2.513587,-5.325102 z" />
              <circle
                 transform="scale(-1,1)"
                 r="3.9687498"
                 cy="13.149919"
                 cx="-39.293842"
                 id="path1818"
                 style="opacity:1;fill:#fcb6a7;fill-opacity:1;stroke:#424242;stroke-width:0;stroke-miterlimit:76.59999847;stroke-dasharray:none;stroke-dashoffset:0;stroke-opacity:1" />
              <path
                 transform="translate(0,-220.79998)"
                 id="rect1513-5-8-0-6-4"
                 d="m 41.047981,293.82257 c -0.192731,0.008 -0.602428,0.61406 -0.602428,0.61406 0,0 -2.233813,0.54968 -2.533846,0.83779 -0.351737,0.33776 -0.225917,0.92977 -0.124459,0.92981 l 6.276464,0.002 c 0.118851,-0.98557 0.07314,-1.99645 -0.54145,-2.54627 -1.461607,0.14427 -1.206092,0.11676 -2.474282,0.16153 z"
                 style="opacity:1;fill:#616161;fill-opacity:1;stroke:#424242;stroke-width:0;stroke-miterlimit:76.59999847;stroke-dasharray:none;stroke-dashoffset:0;stroke-opacity:1" />
              <path
                 id="rect1513-5-8-0-6-4-6"
                 d="m 25.882505,71.024629 c -0.188758,-0.0397 -0.735177,0.44665 -0.735177,0.44665 0,0 -2.300381,-0.0178 -2.662162,0.18751 -0.424127,0.24066 -0.448083,0.84542 -0.349764,0.87046 l 6.082392,1.54872 c 0.35807,-0.92589 0.56289,-1.91685 0.102754,-2.60118 -1.452082,-0.22037 -1.197668,-0.18407 -2.437778,-0.45321 z"
                 style="opacity:1;fill:#616161;fill-opacity:1;stroke:#424242;stroke-width:0;stroke-miterlimit:76.59999847;stroke-dasharray:none;stroke-dashoffset:0;stroke-opacity:1" />
              <path
                 d="m 31.76272,43.601474 v 0 c 0,0 -4.561512,13.1505 -5.162728,16.073465 -0.138195,2.443407 -1.300951,8.835327 -0.991605,8.906468 0.260982,0.06002 3.280937,0.877156 3.89583,0.633175 0.532306,-0.211207 1.770092,-8.589891 1.90146,-9.08593 0.131245,-0.495573 4.981623,-7.263979 4.981623,-7.263979 l 1.153893,7.094833 c 0.233862,1.023514 2.412239,11.177336 2.900121,11.231652 1.164668,-0.257492 3.439651,-0.270695 3.778976,-0.563044 0.231977,-0.122938 -1.165551,-7.270078 -1.861587,-11.031347 -0.163231,-0.912193 0.165732,-15.438611 0.165732,-15.438611 z"
                 id="path18"
                 style="fill:#424242;fill-opacity:1;stroke-width:0.10376241" />
              <path
                 id="rect1816"
                 d="m 43.376802,19.589039 c -1.163362,-0.571221 -1.236266,-1.779567 -2.555764,-1.838427 -0.659748,-0.02943 -2.156623,-0.196316 -3.056535,0.0156 -0.899913,0.21192 -0.901068,1.381424 -1.514586,1.676599 -1.645664,0.791758 -4.195257,0.462598 -5.336096,1.902808 -2.35907,2.978121 0.619548,1.530491 0.701913,15.10123 0.02728,4.494739 -1.403322,8.759782 -0.742101,8.917596 2.566542,0.61256 10.750245,-0.619354 12.08201,0.242031 0.632686,0.409222 1.583063,-4.294314 2.596434,-8.335283 1.013371,-4.04097 2.220958,-6.36085 2.507974,-9.544238 0.574033,-6.366775 -1.128849,-6.319339 -2.089037,-6.804831 -1.138626,-0.575714 -2.594212,-1.333085 -2.594212,-1.333085 z"
                 style="opacity:1;fill:#5e35b1;fill-opacity:1;stroke:#424242;stroke-width:0;stroke-miterlimit:76.59999847;stroke-dasharray:none;stroke-dashoffset:0;stroke-opacity:1" />
              <path
                 style="fill:#4a332f;fill-opacity:1;stroke-width:0.14772582"
                 id="path50-4-1-8"
                 d="M 43.36407,11.29441 C 42.369451,9.1773107 38.569567,7.7279775 36.76047,8.9206317 30.247011,13.6223 45.604828,10.671524 40.733507,18.561408 44.081681,17.721094 44.459489,13.626067 43.36407,11.29441 Z" />
              <g
                 transform="matrix(-0.8857577,-0.05407838,-0.05407838,0.8857577,72.876854,7.900896)"
                 id="g2546">
                <g
                   id="g2812">
                  <path
                     id="rect2225-5"
                     d="M 16.212214,30.2582 29.427967,15.689952 c 0.595674,-0.656636 0.978735,-0.452365 1.705354,0.09319 l 24.09623,18.091655 c 0.726622,0.545554 0.87287,1.675179 0.276803,2.331461 L 42.108535,50.957565 c -0.596067,0.656283 -1.333945,0.734644 -2.05845,0.186281 L 15.65254,32.677773 C 14.928033,32.129418 15.185932,31.463634 15.408116,31.17221 Z"
                     style="opacity:1;fill:#ffffff;fill-opacity:1;stroke:#bdbdbd;stroke-width:0.50634903;stroke-miterlimit:76.59999847;stroke-dasharray:none;stroke-dashoffset:0;stroke-opacity:1" />
                  <path
                     style="fill:#cccccc;stroke-width:0.14021461"
                     id="path30-1-5"
                     d="m 32.50835,21.442723 -4.823948,5.352511 c -0.381873,0.423715 -1.048251,-0.252029 -0.661361,-0.671168 l 4.844843,-5.24868 c 0.378177,-0.427733 1.018639,0.139599 0.640461,0.567337 z" />
                  <circle
                     style="fill:#e6e6e6;fill-opacity:1;stroke-width:0.05333285"
                     id="circle34-0-9"
                     r="1.0717721"
                     cy="27.773794"
                     cx="39.932804" />
                  <path
                     style="fill:#cccccc;stroke-width:0.14021461"
                     id="path36-3-4"
                     d="m 31.101686,20.088921 -9.67642,10.686721 c -0.377695,0.346196 -0.904654,-0.0995 -0.614602,-0.521847 l 9.645148,-10.726039 c 0.377694,-0.346195 0.935923,0.138821 0.645874,0.561165 z" />
                  <circle
                     r="1.0717721"
                     style="fill:#e6e6e6;fill-opacity:1;stroke-width:0.05333285"
                     id="circle34-6-6-6"
                     cy="24.760263"
                     cx="36.174854" />
                  <circle
                     style="fill:#e6e6e6;fill-opacity:1;stroke-width:0.05333285"
                     id="circle34-3-3-92"
                     r="1.0717721"
                     cy="33.94318"
                     cx="48.034706" />
                  <circle
                     style="opacity:0.8;fill:#5e35b1;stroke-width:0.05333285"
                     id="circle34-8-1-2"
                     r="1.0717721"
                     cy="30.64323"
                     cx="43.854572" />
                  <path
                     style="fill:#cccccc;stroke-width:0.14021461"
                     id="path36-6-7-4"
                     d="m 34.480618,27.40078 -7.411216,8.844105 A 0.43057523,0.43057523 0 0 1 26.41361,35.695342 l 7.411216,-8.844105 a 0.43057523,0.43057523 0 0 1 0.655792,0.549543 z" />
                  <path
                     style="fill:#cccccc;stroke-width:0.14021461"
                     id="path36-6-7-4-2"
                     d="m 38.102414,30.616239 -7.411216,8.844105 a 0.43057524,0.43057524 0 0 1 -0.655792,-0.549543 l 7.411216,-8.844105 a 0.43057524,0.43057524 0 0 1 0.655792,0.549543 z" />
                  <path
                     style="fill:#cccccc;stroke-width:0.14021461"
                     id="path36-6-7-4-5"
                     d="m 41.944325,33.622804 -7.411216,8.844106 a 0.43057524,0.43057524 0 0 1 -0.655792,-0.549543 l 7.411216,-8.844105 a 0.43057524,0.43057524 0 0 1 0.655792,0.549542 z" />
                  <path
                     style="fill:#cccccc;stroke-width:0.14021461"
                     id="path36-6-7-4-8"
                     d="m 46.013419,36.927966 -7.411216,8.844106 a 0.43057524,0.43057524 0 0 1 -0.655792,-0.549543 l 7.411216,-8.844106 a 0.43057524,0.43057524 0 0 1 0.655792,0.549543 z" />
                </g>
              </g>
              <path
                 style="fill:#4a332f;fill-opacity:1;stroke-width:0.1533134"
                 id="path50-4-1-8-2"
                 d="M 42.823114,8.8064938 C 40.981756,7.631194 36.196105,7.9089848 36.26027,10.07502 c 0.764161,2.901354 3.64783,-0.7665322 8.102354,7.532605 1.132318,-3.288038 1.098472,-7.117363 -1.53951,-8.8011312 z" />
            </g>
          </g>
        </g>
      </g>
    </g>
  </g>
</svg>
